{
  "accessors": [
    {
      "bufferView": 2,
      "componentType": 5126,
      "count": 1802,
      "max": [
        0.9803040027618408,
        0.7332540154457092,
        0.7950180172920227
      ],
      "min": [
        -1.2909849882125854,
        -0.725970983505249,
        0.253260999917984
      ],
      "type": "VEC3"
    },
    {
      "bufferView": 2,
      "byteOffset": 21624,
      "componentType": 5126,
      "count": 1802,
      "max": [
        0.998857855796814,
        1.0,
        0.9998106360435486
      ],
      "min": [
        -0.99956876039505,
        -1.0,
        -0.9999066591262817
      ],
      "type": "VEC3"
    },
    {
      "bufferView": 1,
      "componentType": 5126,
      "count": 1802,
      "max": [
        0.9872729778289795,
        0.9814419746398926
      ],
      "min": [
        0.04435500130057335,
        0.0
      ],
      "type": "VEC2"
    },
    {
      "bufferView": 0,
      "componentType": 5125,
      "count": 3990,
      "type": "SCALAR"
    },
    {
      "bufferView": 2,
      "byteOffset": 43248,
      "componentType": 5126,
      "count": 12447,
      "max": [
        1.895447015762329,
        0.8390669822692871,
        -0.03897799924015999
      ],
      "min": [
        -1.3715269565582275,
        -0.8404620289802551,
        -0.7125809788703918
      ],
      "type": "VEC3"
    },
    {
      "bufferView": 2,
      "byteOffset": 192612,
      "componentType": 5126,
      "count": 12447,
      "max": [
        1.0,
        1.0,
        1.0
      ],
      "min": [
        -1.0,
        -1.0,
        -1.0
      ],
      "type": "VEC3"
    },
    {
      "bufferView": 1,
      "byteOffset": 14416,
      "componentType": 5126,
      "count": 12447,
      "max": [
        1.0,
        0.9999390244483948
      ],
      "min": [
        0.0,
        0.0
      ],
      "type": "VEC2"
    },
    {
      "bufferView": 0,
      "byteOffset": 15960,
      "componentType": 5125,
      "count": 30312,
      "type": "SCALAR"
    },
    {
      "bufferView": 2,
      "byteOffset": 341976,
      "componentType": 5126,
      "count": 14343,
      "max": [
        1.066351056098938,
        1.1594129800796509,
        0.7478209733963013
      ],
      "min": [
        -2.1795620918273926,
        -1.1503620147705078,
        -0.04380200058221817
      ],
      "type": "VEC3"
    },
    {
      "bufferView": 2,
      "byteOffset": 514092,
      "componentType": 5126,
      "count": 14343,
      "max": [
        1.0,
        1.0,
        1.0
      ],
      "min": [
        -1.0,
        -1.0,
        -1.0
      ],
      "type": "VEC3"
    },
    {
      "bufferView": 1,
      "byteOffset": 113992,
      "componentType": 5126,
      "count": 14343,
      "max": [
        0.9990940093994141,
        0.999468982219696
      ],
      "min": [
        0.0,
        0.07557299733161926
      ],
      "type": "VEC2"
    },
    {
      "bufferView": 0,
      "byteOffset": 137208,
      "componentType": 5125,
      "count": 35712,
      "type": "SCALAR"
    },
    {
      "bufferView": 2,
      "byteOffset": 686208,
      "componentType": 5126,
      "count": 1477,
      "max": [
        0.9371029734611511,
        0.8160169720649719,
        0.6680660247802734
      ],
      "min": [
        -1.5985970497131348,
        -0.7887780070304871,
        0.2684189975261688
      ],
      "type": "VEC3"
    },
    {
      "bufferView": 2,
      "byteOffset": 703932,
      "componentType": 5126,
      "count": 1477,
      "max": [
        0.9788196682929993,
        0.9998140931129456,
        0.9997501373291016
      ],
      "min": [
        -0.9768421053886414,
        -0.9998956322669983,
        -0.9994377493858337
      ],
      "type": "VEC3"
    },
    {
      "bufferView": 1,
      "byteOffset": 228736,
      "componentType": 5126,
      "count": 1477,
      "max": [
        0.9925839900970459,
        0.9985389709472656
      ],
      "min": [
        0.057673998177051544,
        0.0
      ],
      "type": "VEC2"
    },
    {
      "bufferView": 0,
      "byteOffset": 280056,
      "componentType": 5125,
      "count": 5616,
      "type": "SCALAR"
    },
    {
      "bufferView": 2,
      "byteOffset": 721656,
      "componentType": 5126,
      "count": 948,
      "max": [
        -0.7100279927253723,
        0.5979769825935364,
        0.5793179869651794
      ],
      "min": [
        -1.488150954246521,
        -0.5979769825935364,
        0.27580299973487854
      ],
      "type": "VEC3"
    },
    {
      "bufferView": 2,
      "byteOffset": 733032,
      "componentType": 5126,
      "count": 948,
      "max": [
        1.0,
        1.0,
        1.0
      ],
      "min": [
        -1.0,
        -1.0,
        -1.0
      ],
      "type": "VEC3"
    },
    {
      "bufferView": 1,
      "byteOffset": 240552,
      "componentType": 5126,
      "count": 948,
      "max": [
        0.9947659969329834,
        0.9861720204353333
      ],
      "min": [
        0.0,
        0.0
      ],
      "type": "VEC2"
    },
    {
      "bufferView": 0,
      "byteOffset": 302520,
      "componentType": 5125,
      "count": 2148,
      "type": "SCALAR"
    },
    {
      "bufferView": 2,
      "byteOffset": 744408,
      "componentType": 5126,
      "count": 2070,
      "max": [
        1.8769609928131104,
        0.640263020992279,
        -0.0232900008559227
      ],
      "min": [
        -1.3311280012130737,
        -0.6415460109710693,
        -0.6555140018463135
      ],
      "type": "VEC3"
    },
    {
      "bufferView": 2,
      "byteOffset": 769248,
      "componentType": 5126,
      "count": 2070,
      "max": [
        0.9914483428001404,
        0.9992479085922241,
        0.9914483428001404
      ],
      "min": [
        -0.9914483428001404,
        -0.9992475509643555,
        -0.9914483428001404
      ],
      "type": "VEC3"
    },
    {
      "bufferView": 1,
      "byteOffset": 248136,
      "componentType": 5126,
      "count": 2070,
      "max": [
        0.9940680265426636,
        0.9939069747924805
      ],
      "min": [
        0.08593399822711945,
        0.0
      ],
      "type": "VEC2"
    },
    {
      "bufferView": 0,
      "byteOffset": 311112,
      "componentType": 5125,
      "count": 8064,
      "type": "SCALAR"
    },
    {
      "bufferView": 2,
      "byteOffset": 794088,
      "componentType": 5126,
      "count": 23969,
      "max": [
        2.394995927810669,
        0.8028979897499084,
        0.7532349824905396
      ],
      "min": [
        -2.437453031539917,
        -0.8028969764709473,
        -0.5003139972686768
      ],
      "type": "VEC3"
    },
    {
      "bufferView": 2,
      "byteOffset": 1081716,
      "componentType": 5126,
      "count": 23969,
      "max": [
        0.999999463558197,
        1.0,
        1.0
      ],
      "min": [
        -0.9999323487281799,
        -1.0,
        -1.0
      ],
      "type": "VEC3"
    },
    {
      "bufferView": 1,
      "byteOffset": 264696,
      "componentType": 5126,
      "count": 23969,
      "max": [
        0.994488000869751,
        0.9944970011711121
      ],
      "min": [
        0.0,
        0.0
      ],
      "type": "VEC2"
    },
    {
      "bufferView": 0,
      "byteOffset": 343368,
      "componentType": 5125,
      "count": 95760,
      "type": "SCALAR"
    }
  ],
  "asset": {
    "extras": {
      "author": "Erdem Dağdelen (https://sketchfab.com/erdemdagdelen)",
      "license": "CC-BY-4.0 (http://creativecommons.org/licenses/by/4.0/)",
      "source": "https://sketchfab.com/3d-models/sci-fi-retro-future-car-8f8c913bce29419397f9a18c2a92dd6d",
      "title": "Sci-fi / Retro Future Car"
    },
    "generator": "Sketchfab-12.67.0",
    "version": "2.0"
  },
  "bufferViews": [
    {
      "buffer": 0,
      "byteLength": 726408,
      "name": "floatBufferViews",
      "target": 34963
    },
    {
      "buffer": 0,
      "byteLength": 456448,
      "byteOffset": 726408,
      "byteStride": 8,
      "name": "floatBufferViews",
      "target": 34962
    },
    {
      "buffer": 0,
      "byteLength": 1369344,
      "byteOffset": 1182856,
      "byteStride": 12,
      "name": "floatBufferViews",
      "target": 34962
    }
  ],
  "buffers": [
    {
      "byteLength": 2552200,
      "uri": "scene.bin"
    }
  ],
  "images": [
    {
      "uri": "textures/GVDE_baseColor.jpeg"
    },
    {
      "uri": "textures/GVDE_metallicRoughness.png"
    },
    {
      "uri": "textures/material_baseColor.jpeg"
    },
    {
      "uri": "textures/material_metallicRoughness.png"
    },
    {
      "uri": "textures/PERVANE_baseColor.jpeg"
    },
    {
      "uri": "textures/PERVANE_metallicRoughness.png"
    },
    {
      "uri": "textures/material_3_baseColor.jpeg"
    },
    {
      "uri": "textures/material_3_metallicRoughness.png"
    },
    {
      "uri": "textures/material_4_baseColor.png"
    },
    {
      "uri": "textures/material_4_metallicRoughness.png"
    }
  ],
  "materials": [
    {
      "doubleSided": true,
      "name": "GVDE",
      "occlusionTexture": {
        "index": 1
      },
      "pbrMetallicRoughness": {
        "baseColorTexture": {
          "index": 0
        },
        "metallicRoughnessTexture": {
          "index": 1
        }
      }
    },
    {
      "doubleSided": true,
      "name": "material",
      "occlusionTexture": {
        "index": 3
      },
      "pbrMetallicRoughness": {
        "baseColorTexture": {
          "index": 2
        },
        "metallicRoughnessTexture": {
          "index": 3
        }
      }
    },
    {
      "doubleSided": true,
      "name": "PERVANE",
      "occlusionTexture": {
        "index": 5
      },
      "pbrMetallicRoughness": {
        "baseColorTexture": {
          "index": 4
        },
        "metallicRoughnessTexture": {
          "index": 5
        }
      }
    },
    {
      "doubleSided": true,
      "name": "material_3",
      "occlusionTexture": {
        "index": 7
      },
      "pbrMetallicRoughness": {
        "baseColorTexture": {
          "index": 6
        },
        "metallicRoughnessTexture": {
          "index": 7
        }
      }
    },
    {
      "alphaMode": "BLEND",
      "doubleSided": true,
      "name": "material_4",
      "occlusionTexture": {
        "index": 9
      },
      "pbrMetallicRoughness": {
        "baseColorTexture": {
          "index": 8
        },
        "metallicRoughnessTexture": {
          "index": 9
        }
      }
    }
  ],
  "meshes": [
    {
      "name": "defaultMaterial",
      "primitives": [
        {
          "attributes": {
            "NORMAL": 1,
            "POSITION": 0,
            "TEXCOORD_0": 2
          },
          "indices": 3,
          "material": 4,
          "mode": 4
        }
      ]
    },
    {
      "name": "defaultMaterial",
      "primitives": [
        {
          "attributes": {
            "NORMAL": 5,
            "POSITION": 4,
            "TEXCOORD_0": 6
          },
          "indices": 7,
          "material": 3,
          "mode": 4
        }
      ]
    },
    {
      "name": "defaultMaterial",
      "primitives": [
        {
          "attributes": {
            "NORMAL": 9,
            "POSITION": 8,
            "TEXCOORD_0": 10
          },
          "indices": 11,
          "material": 2,
          "mode": 4
        }
      ]
    },
    {
      "name": "defaultMaterial",
      "primitives": [
        {
          "attributes": {
            "NORMAL": 13,
            "POSITION": 12,
            "TEXCOORD_0": 14
          },
          "indices": 15,
          "material": 0,
          "mode": 4
        }
      ]
    },
    {
      "name": "defaultMaterial",
      "primitives": [
        {
          "attributes": {
            "NORMAL": 17,
            "POSITION": 16,
            "TEXCOORD_0": 18
          },
          "indices": 19,
          "material": 0,
          "mode": 4
        }
      ]
    },
    {
      "name": "defaultMaterial",
      "primitives": [
        {
          "attributes": {
            "NORMAL": 21,
            "POSITION": 20,
            "TEXCOORD_0": 22
          },
          "indices": 23,
          "material": 1,
          "mode": 4
        }
      ]
    },
    {
      "name": "defaultMaterial",
      "primitives": [
        {
          "attributes": {
            "NORMAL": 25,
            "POSITION": 24,
            "TEXCOORD_0": 26
          },
          "indices": 27,
          "material": 0,
          "mode": 4
        }
      ]
    }
  ],
  "nodes": [
    {
      "children": [
        1
      ],
      "matrix": [
        0.010347827337682247,
        0.0,
        0.0,
        0.0,
        0.0,
        2.297679233028093e-18,
        -0.010347827337682247,
        0.0,
        0.0,
        0.010347827337682247,
        2.297679233028093e-18,
        0.0,
        0.0,
        0.0,
        0.0,
        1.0
      ],
      "name": "Sketchfab_model"
    },
    {
      "children": [
        2,
        4,
        6,
        8,
        10,
        12,
        14
      ],
      "matrix": [
        1.0,
        0.0,
        0.0,
        0.0,
        0.0,
        -4.371139006309477e-08,
        0.999999999999999,
        0.0,
        0.0,
        -0.999999999999999,
        -4.371139006309477e-08,
        0.0,
        0.0,
        0.0,
        0.0,
        1.0
      ],
      "name": "Collada visual scene group"
    },
    {
      "children": [
        3
      ],
      "matrix": [
        100.0,
        0.0,
        0.0,
        0.0,
        0.0,
        -1.6e-05,
        -100.0,
        0.0,
        0.0,
        100.0,
        -1.6e-05,
        0.0,
        0.0,
        0.0,
        0.0,
        1.0
      ],
      "name": "Cube.006"
    },
    {
      "mesh": 0,
      "name": "defaultMaterial"
    },
    {
      "children": [
        5
      ],
      "matrix": [
        100.0,
        0.0,
        0.0,
        0.0,
        0.0,
        -1.6e-05,
        -100.0,
        0.0,
        0.0,
        100.0,
        -1.6e-05,
        0.0,
        0.0,
        0.0,
        0.0,
        1.0
      ],
      "name": "Cylinder.008"
    },
    {
      "mesh": 1,
      "name": "defaultMaterial"
    },
    {
      "children": [
        7
      ],
      "matrix": [
        100.0,
        0.0,
        0.0,
        0.0,
        0.0,
        -1.6e-05,
        -100.0,
        0.0,
        0.0,
        100.0,
        -1.6e-05,
        0.0,
        0.0,
        0.0,
        0.0,
        1.0
      ],
      "name": "Cylinder.003"
    },
    {
      "mesh": 2,
      "name": "defaultMaterial"
    },
    {
      "children": [
        9
      ],
      "matrix": [
        100.0,
        0.0,
        0.0,
        0.0,
        0.0,
        -1.6e-05,
        -100.0,
        0.0,
        0.0,
        100.0,
        -1.6e-05,
        0.0,
        0.0,
        0.0,
        0.0,
        1.0
      ],
      "name": "NurbsPath.002"
    },
    {
      "mesh": 3,
      "name": "defaultMaterial"
    },
    {
      "children": [
        11
      ],
      "matrix": [
        100.0,
        0.0,
        0.0,
        0.0,
        0.0,
        -1.6e-05,
        -100.0,
        0.0,
        0.0,
        100.0,
        -1.6e-05,
        0.0,
        0.0,
        0.0,
        0.0,
        1.0
      ],
      "name": "Cube.009"
    },
    {
      "mesh": 4,
      "name": "defaultMaterial"
    },
    {
      "children": [
        13
      ],
      "matrix": [
        100.0,
        0.0,
        0.0,
        0.0,
        0.0,
        -1.6e-05,
        -100.0,
        0.0,
        0.0,
        100.0,
        -1.6e-05,
        0.0,
        0.0,
        0.0,
        0.0,
        1.0
      ],
      "name": "Torus.002"
    },
    {
      "mesh": 5,
      "name": "defaultMaterial"
    },
    {
      "children": [
        15
      ],
      "matrix": [
        100.0,
        0.0,
        0.0,
        0.0,
        0.0,
        -1.6e-05,
        -100.0,
        0.0,
        0.0,
        100.0,
        -1.6e-05,
        0.0,
        0.0,
        0.0,
        0.0,
        1.0
      ],
      "name": "Cube"
    },
    {
      "mesh": 6,
      "name": "defaultMaterial"
    }
  ],
  "samplers": [
    {
      "magFilter": 9729,
      "minFilter": 9987,
      "wrapS": 10497,
      "wrapT": 10497
    }
  ],
  "scene": 0,
  "scenes": [
    {
      "name": "Sketchfab_Scene",
      "nodes": [
        0
      ]
    }
  ],
  "textures": [
    {
      "sampler": 0,
      "source": 0
    },
    {
      "sampler": 0,
      "source": 1
    },
    {
      "sampler": 0,
      "source": 2
    },
    {
      "sampler": 0,
      "source": 3
    },
    {
      "sampler": 0,
      "source": 4
    },
    {
      "sampler": 0,
      "source": 5
    },
    {
      "sampler": 0,
      "source": 6
    },
    {
      "sampler": 0,
      "source": 7
    },
    {
      "sampler": 0,
      "source": 8
    },
    {
      "sampler": 0,
      "source": 9
    }
  ]
}
